<svg width="206" height="42" viewBox="0 0 206 42" fill="none" xmlns="http://www.w3.org/2000/svg">
<path d="M22.5928 0.366199C21.7054 0.896473 20.3093 2.20593 19.7466 3.02839C19.1947 3.85086 18.6536 5.01963 18.4263 5.91785C18.1666 6.90265 18.08 8.6558 18.2423 9.66224C18.3181 10.1059 18.3614 10.5064 18.3397 10.528C18.3073 10.5496 18.0475 10.4955 17.7554 10.3981C16.9221 10.1384 14.5953 10.0735 13.5673 10.2899C12.4634 10.5172 12.1496 10.6903 11.944 11.1881C11.457 12.411 11.4245 15.1381 11.8682 16.5775C12.2037 17.6488 12.669 18.547 13.34 19.4453C13.6647 19.8673 13.9244 20.2353 13.9244 20.2569C13.9244 20.2786 13.7188 20.3218 13.4699 20.3651C12.669 20.495 12.1279 20.8088 11.944 21.2634C11.457 22.4646 11.4245 25.235 11.8682 26.631C12.3552 28.1677 12.9829 29.2175 14.0759 30.3646C15.0174 31.3278 15.9156 31.9987 16.9762 32.4749C18.3181 33.0917 19.0756 33.2432 20.8829 33.2432H22.4737V36.8361C22.4737 40.6995 22.4954 40.8727 23.0256 41.1541C23.4802 41.3813 23.8373 41.338 24.2269 40.9917L24.584 40.6779L24.6165 36.9552L24.6489 33.2432H26.2397C28.0362 33.2432 28.7937 33.0917 30.1356 32.4749C31.1962 31.9987 32.0944 31.3278 33.0359 30.3646C34.1289 29.2175 34.7566 28.1677 35.2436 26.631C35.6873 25.235 35.6548 22.4646 35.1678 21.2634C34.9839 20.8088 34.4428 20.495 33.6528 20.3651C33.393 20.3218 33.1874 20.2677 33.1874 20.2461C33.1874 20.2244 33.4255 19.889 33.7177 19.521C34.3454 18.7202 34.9189 17.6272 35.2436 16.5775C35.6981 15.1057 35.644 12.3244 35.1354 11.1557C34.9189 10.647 34.5185 10.4414 33.3389 10.2358C32.4083 10.0735 30.0815 10.1709 29.3565 10.3981C29.0643 10.4955 28.8045 10.5496 28.7829 10.528C28.7613 10.5064 28.7937 10.16 28.8695 9.74882C29.0426 8.74237 28.9344 6.7295 28.6422 5.72306C28.3825 4.78155 27.7981 3.60196 27.2354 2.84442C26.7159 2.13017 25.5039 0.99387 24.7139 0.463596C23.8156 -0.131611 23.4477 -0.142433 22.5928 0.366199ZM24.4541 2.99593C25.9151 4.33785 26.6726 5.95032 26.77 7.91991C26.8566 9.70553 26.4237 11.1881 25.4065 12.5625C24.9952 13.1144 23.7615 14.2507 23.5776 14.2507C23.5343 14.2507 23.188 13.991 22.82 13.6772C21.2941 12.4002 20.4717 10.7661 20.3418 8.78566C20.2552 7.46539 20.5041 6.25333 21.0885 5.0521C21.4456 4.32703 21.7162 3.94826 22.4304 3.24483C22.9282 2.7362 23.4152 2.34661 23.5343 2.34661C23.6425 2.34661 24.0645 2.63881 24.4541 2.99593ZM17.0086 12.4651C19.3029 13.0062 21.4565 15.0407 22.1707 17.335C22.3655 17.9302 22.4088 18.3739 22.4196 19.4128C22.4196 20.2786 22.3763 20.7764 22.2897 20.8629C22.2248 20.9279 21.7378 21.0144 21.2075 21.0361C18.8917 21.1768 16.803 20.2461 15.2988 18.4172C14.2166 17.1077 13.7079 15.7117 13.7079 14.0559C13.7079 12.779 13.7837 12.4327 14.0759 12.3785C14.617 12.2703 16.4134 12.3244 17.0086 12.4651ZM33.2632 12.4435C33.4472 12.6275 33.4363 14.9217 33.2415 15.6468C32.3866 18.9691 29.2915 21.2309 25.9043 21.0361C25.374 21.0144 24.8978 20.9387 24.8437 20.8846C24.7896 20.8305 24.7139 20.3651 24.6706 19.8673C24.584 18.6012 24.8329 17.3891 25.4281 16.1987C26.283 14.478 28.2093 12.9196 30.0599 12.4543C30.6876 12.3028 33.1009 12.292 33.2632 12.4435ZM17.0844 22.5728C18.9891 23.0598 20.45 24.1745 21.5322 25.9601C22.1923 27.0639 22.4196 27.9297 22.4196 29.4772C22.4196 30.3538 22.3763 30.8408 22.2897 30.9273C22.0733 31.1438 20.2552 31.1762 19.3354 30.9814C16.9978 30.4945 14.8226 28.5573 14.0218 26.2631C13.7621 25.5056 13.6214 23.839 13.7512 22.9732C13.8378 22.4105 13.8486 22.3997 15.2879 22.378C15.9481 22.3672 16.5433 22.4321 17.0844 22.5728ZM33.2632 22.5079C33.3065 22.562 33.3498 23.2654 33.3498 24.0771C33.3498 25.354 33.3173 25.6571 33.1009 26.2631C32.7221 27.3128 32.1593 28.1677 31.2395 29.0768C29.7785 30.5269 28.0037 31.2087 25.9584 31.1005C25.4065 31.0788 24.8978 31.0031 24.8437 30.949C24.7896 30.8949 24.7139 30.4295 24.6706 29.9317C24.4758 27.0531 26.1424 24.2502 28.7829 23.0057C29.1941 22.8217 29.7677 22.6053 30.0815 22.5187C30.6984 22.3672 33.1117 22.3564 33.2632 22.5079Z" fill="#DBEA8D"/>
<path d="M48.5559 32.4555V8.61548H53.5159V18.9195H62.7959V8.61548H67.7559V32.4555H62.7959V23.2395H53.5159V32.4555H48.5559Z" fill="#3C6255"/>
<path d="M77.0494 32.8395C75.7907 32.8395 74.7027 32.6368 73.7854 32.2315C72.8681 31.8261 72.1641 31.2501 71.6734 30.5035C71.1827 29.7355 70.9374 28.8288 70.9374 27.7835C70.9374 26.8021 71.1614 25.9381 71.6094 25.1915C72.0574 24.4235 72.7401 23.7835 73.6574 23.2715C74.5961 22.7595 75.7587 22.3968 77.1454 22.1835L82.4894 21.3195V24.8395L78.0094 25.6395C77.3267 25.7675 76.8041 25.9915 76.4414 26.3115C76.0787 26.6101 75.8974 27.0475 75.8974 27.6235C75.8974 28.1568 76.1001 28.5728 76.5054 28.8715C76.9107 29.1701 77.4121 29.3195 78.0094 29.3195C78.7987 29.3195 79.4921 29.1488 80.0894 28.8075C80.6867 28.4661 81.1454 28.0075 81.4654 27.4315C81.8067 26.8341 81.9774 26.1835 81.9774 25.4795V20.9355C81.9774 20.2741 81.7107 19.7195 81.1774 19.2715C80.6654 18.8235 79.9614 18.5995 79.0654 18.5995C78.2121 18.5995 77.4547 18.8341 76.7934 19.3035C75.7645 20.058 74.4042 20.6934 73.2517 20.146L71.5454 19.3355C71.8867 18.3541 72.4307 17.5115 73.1774 16.8075C73.9241 16.1035 74.8201 15.5595 75.8654 15.1755C76.9107 14.7915 78.0521 14.5995 79.2894 14.5995C80.7614 14.5995 82.0627 14.8661 83.1934 15.3995C84.3241 15.9328 85.1987 16.6795 85.8174 17.6395C86.4574 18.5781 86.7774 19.6768 86.7774 20.9355V32.4555H82.2974V29.6395L83.3854 29.4475C82.8734 30.2155 82.3081 30.8555 81.6894 31.3675C81.0707 31.8581 80.3774 32.2208 79.6094 32.4555C78.8414 32.7115 77.9881 32.8395 77.0494 32.8395Z" fill="#3C6255"/>
<path d="M90.2977 32.4555V19.7835C90.2977 17.1325 92.4467 14.9835 95.0977 14.9835V27.6555C95.0977 30.3064 92.9486 32.4555 90.2977 32.4555ZM92.6977 13.9554C91.3722 13.9554 90.2977 12.8809 90.2977 11.5554V11.0155C90.2977 9.69 91.3722 8.61548 92.6977 8.61548C94.0231 8.61548 95.0977 9.69 95.0977 11.0155V11.5554C95.0977 12.8809 94.0231 13.9554 92.6977 13.9554Z" fill="#3C6255"/>
<path d="M98.9622 32.4555V8.61548H108.114C109.757 8.61548 111.207 8.90348 112.466 9.47948C113.746 10.0555 114.749 10.9088 115.474 12.0395C116.199 13.1701 116.562 14.5675 116.562 16.2315C116.562 17.8528 116.189 19.2288 115.442 20.3595C114.717 21.4901 113.714 22.3541 112.434 22.9515C111.175 23.5275 109.735 23.8155 108.114 23.8155H103.922V32.4555H98.9622ZM103.922 19.4955H108.146C108.85 19.4955 109.458 19.3568 109.97 19.0795C110.482 18.8021 110.877 18.4181 111.154 17.9275C111.453 17.4368 111.602 16.8715 111.602 16.2315C111.602 15.5701 111.453 14.9941 111.154 14.5035C110.877 14.0128 110.482 13.6288 109.97 13.3515C109.458 13.0741 108.85 12.9355 108.146 12.9355H103.922V19.4955Z" fill="#3C6255"/>
<path d="M127.182 32.8395C125.326 32.8395 123.716 32.4341 122.35 31.6235C120.985 30.7915 119.929 29.6821 119.182 28.2955C118.436 26.9088 118.062 25.3728 118.062 23.6875C118.062 21.9381 118.446 20.3808 119.214 19.0155C120.004 17.6501 121.06 16.5728 122.382 15.7835C123.705 14.9941 125.198 14.5995 126.862 14.5995C128.249 14.5995 129.476 14.8235 130.542 15.2715C131.609 15.6981 132.505 16.3061 133.23 17.0955C133.977 17.8848 134.542 18.8021 134.926 19.8475C135.31 20.8715 135.502 21.9915 135.502 23.2075C135.502 23.5488 135.481 23.8901 135.438 24.2315C135.417 24.5515 135.364 24.8288 135.278 25.0635H122.19V21.5435H132.558L130.286 23.2075C130.5 22.2901 130.489 21.4795 130.254 20.7755C130.02 20.0501 129.604 19.4848 129.006 19.0795C128.43 18.6528 127.716 18.4395 126.862 18.4395C126.03 18.4395 125.316 18.6421 124.718 19.0475C124.121 19.4528 123.673 20.0501 123.374 20.8395C123.076 21.6288 122.958 22.5888 123.022 23.7195C122.937 24.7008 123.054 25.5648 123.374 26.3115C123.694 27.0581 124.185 27.6448 124.846 28.0715C125.508 28.4768 126.308 28.6795 127.246 28.6795C128.1 28.6795 128.825 28.5088 129.422 28.1675C130.041 27.8261 130.521 27.3568 130.862 26.7595L134.702 28.5835C134.361 29.4368 133.817 30.1835 133.07 30.8235C132.345 31.4635 131.481 31.9648 130.478 32.3275C129.476 32.6688 128.377 32.8395 127.182 32.8395Z" fill="#3C6255"/>
<path d="M146.745 32.6475C144.633 32.6475 142.99 32.0821 141.817 30.9515C140.665 29.7995 140.089 28.1995 140.089 26.1515V19.1435H137.145V17.9275C137.145 16.3016 138.463 14.9835 140.089 14.9835C140.089 13.9835 140.089 13.1915 140.089 12.2955V11.0155H144.889V14.9835H148.985V15.0475C148.985 17.3096 147.151 19.1435 144.889 19.1435V25.8315C144.889 26.4288 144.996 26.9301 145.209 27.3355C145.422 27.7195 145.753 28.0075 146.201 28.1995C146.649 28.3915 147.204 28.4875 147.865 28.4875C148.014 28.4875 148.185 28.4768 148.377 28.4555C148.569 28.4341 148.772 28.4128 148.985 28.3915V32.4555C148.665 32.4981 148.302 32.5408 147.897 32.5835C147.492 32.6261 147.108 32.6475 146.745 32.6475Z" fill="#3C6255"/>
<path d="M157.206 32.8395C155.947 32.8395 154.859 32.6368 153.942 32.2315C153.024 31.8261 152.32 31.2501 151.83 30.5035C151.339 29.7355 151.094 28.8288 151.094 27.7835C151.094 26.8021 151.318 25.9381 151.766 25.1915C152.214 24.4235 152.896 23.7835 153.814 23.2715C154.752 22.7595 155.915 22.3968 157.302 22.1835L162.646 21.3195V24.8395L158.166 25.6395C157.483 25.7675 156.96 25.9915 156.598 26.3115C156.235 26.6101 156.054 27.0475 156.054 27.6235C156.054 28.1568 156.256 28.5728 156.662 28.8715C157.067 29.1701 157.568 29.3195 158.166 29.3195C158.955 29.3195 159.648 29.1488 160.246 28.8075C160.843 28.4661 161.302 28.0075 161.622 27.4315C161.963 26.8341 162.134 26.1835 162.134 25.4795V20.9355C162.134 20.2741 161.867 19.7195 161.334 19.2715C160.822 18.8235 160.118 18.5995 159.222 18.5995C158.368 18.5995 157.611 18.8341 156.95 19.3035C155.921 20.058 154.56 20.6934 153.408 20.146L151.702 19.3355C152.043 18.3541 152.587 17.5115 153.334 16.8075C154.08 16.1035 154.976 15.5595 156.022 15.1755C157.067 14.7915 158.208 14.5995 159.446 14.5995C160.918 14.5995 162.219 14.8661 163.35 15.3995C164.48 15.9328 165.355 16.6795 165.974 17.6395C166.614 18.5781 166.934 19.6768 166.934 20.9355V32.4555H162.454V29.6395L163.542 29.4475C163.03 30.2155 162.464 30.8555 161.846 31.3675C161.227 31.8581 160.534 32.2208 159.766 32.4555C158.998 32.7115 158.144 32.8395 157.206 32.8395Z" fill="#3C6255"/>
<path d="M170.454 32.4555V14.9835H174.934V18.4395L174.678 17.6715C175.083 16.6261 175.734 15.8581 176.63 15.3675C177.547 14.8555 178.614 14.5995 179.83 14.5995C181.153 14.5995 182.305 14.8768 183.286 15.4315C184.289 15.9861 185.067 16.7648 185.622 17.7675C186.177 18.7488 186.454 19.9008 186.454 21.2235V32.4555H181.654V22.2475C181.654 21.5648 181.515 20.9781 181.238 20.4875C180.982 19.9968 180.609 19.6128 180.118 19.3355C179.649 19.0581 179.094 18.9195 178.454 18.9195C177.835 18.9195 177.281 19.0581 176.79 19.3355C176.299 19.6128 175.915 19.9968 175.638 20.4875C175.382 20.9781 175.254 21.5648 175.254 22.2475V32.4555H170.454Z" fill="#3C6255"/>
<path d="M189.61 32.4555V19.7835C189.61 17.1325 191.759 14.9835 194.41 14.9835V27.6555C194.41 30.3064 192.261 32.4555 189.61 32.4555ZM192.121 14.0542C190.752 14.1133 189.61 13.0195 189.61 11.6494V10.8649C189.61 9.5342 190.689 8.45544 192.02 8.45544C193.356 8.45544 194.437 9.54323 194.429 10.8797L194.424 11.6642C194.416 12.9475 193.403 13.9989 192.121 14.0542Z" fill="#3C6255"/>
</svg>
