<svg width="24" height="42" viewBox="0 0 24 42" fill="none" xmlns="http://www.w3.org/2000/svg">
<path d="M11.0368 0.366199C10.1494 0.896474 8.75342 2.20593 8.19068 3.02839C7.63876 3.85086 7.09766 5.01963 6.8704 5.91785C6.61068 6.90265 6.5241 8.6558 6.68643 9.66224C6.76218 10.1059 6.80547 10.5064 6.78383 10.528C6.75136 10.5496 6.49163 10.4955 6.19944 10.3981C5.36615 10.1384 3.03944 10.0735 2.01135 10.2899C0.907516 10.5172 0.59368 10.6903 0.388063 11.1881C-0.0989237 12.411 -0.13139 15.1381 0.31231 16.5775C0.64779 17.6488 1.11313 18.547 1.78409 19.4453C2.10875 19.8673 2.36848 20.2353 2.36848 20.2569C2.36848 20.2786 2.16286 20.3218 1.91396 20.3651C1.11313 20.495 0.572036 20.8088 0.388063 21.2634C-0.0989237 22.4646 -0.13139 25.235 0.31231 26.631C0.799297 28.1677 1.42697 29.2175 2.51998 30.3646C3.46149 31.3278 4.35971 31.9987 5.42026 32.4749C6.76218 33.0917 7.51972 33.2432 9.32698 33.2432H10.9178V36.8361C10.9178 40.6995 10.9395 40.8727 11.4697 41.1541C11.9242 41.3813 12.2814 41.338 12.671 40.9917L13.0281 40.6779L13.0605 36.9552L13.093 33.2432H14.6838C16.4803 33.2432 17.2378 33.0917 18.5797 32.4749C19.6403 31.9987 20.5385 31.3278 21.48 30.3646C22.573 29.2175 23.2007 28.1677 23.6877 26.631C24.1314 25.235 24.0989 22.4646 23.6119 21.2634C23.428 20.8088 22.8869 20.495 22.0969 20.3651C21.8371 20.3218 21.6315 20.2677 21.6315 20.2461C21.6315 20.2244 21.8696 19.889 22.1618 19.521C22.7895 18.7202 23.363 17.6272 23.6877 16.5775C24.1422 15.1057 24.0881 12.3244 23.5795 11.1557C23.363 10.647 22.9626 10.4414 21.783 10.2358C20.8523 10.0735 18.5256 10.1709 17.8006 10.3981C17.5084 10.4955 17.2486 10.5496 17.227 10.528C17.2054 10.5064 17.2378 10.16 17.3136 9.74882C17.4867 8.74238 17.3785 6.7295 17.0863 5.72306C16.8266 4.78155 16.2422 3.60196 15.6795 2.84442C15.16 2.13017 13.9479 0.993871 13.1579 0.463596C12.2597 -0.13161 11.8918 -0.142432 11.0368 0.366199ZM12.8982 2.99593C14.3592 4.33785 15.1167 5.95032 15.2141 7.91991C15.3007 9.70553 14.8678 11.1881 13.8506 12.5625C13.4393 13.1144 12.2056 14.2507 12.0216 14.2507C11.9784 14.2507 11.6321 13.991 11.2641 13.6772C9.73822 12.4002 8.91575 10.7661 8.78588 8.78566C8.69931 7.46539 8.94821 6.25333 9.5326 5.0521C9.88972 4.32703 10.1603 3.94826 10.8745 3.24483C11.3723 2.7362 11.8593 2.34661 11.9784 2.34661C12.0866 2.34661 12.5086 2.63881 12.8982 2.99593ZM5.45273 12.4651C7.74698 13.0062 9.90054 15.0407 10.6148 17.335C10.8096 17.9302 10.8529 18.3739 10.8637 19.4128C10.8637 20.2786 10.8204 20.7764 10.7338 20.8629C10.6689 20.9279 10.1819 21.0144 9.65164 21.0361C7.33575 21.1768 5.24711 20.2461 3.74286 18.4172C2.66067 17.1077 2.15204 15.7117 2.15204 14.0559C2.15204 12.779 2.22779 12.4327 2.51998 12.3785C3.06108 12.2703 4.85752 12.3244 5.45273 12.4651ZM21.7073 12.4435C21.8912 12.6274 21.8804 14.9217 21.6856 15.6468C20.8307 18.9691 17.7356 21.2309 14.3484 21.0361C13.8181 21.0144 13.3419 20.9387 13.2878 20.8846C13.2337 20.8305 13.1579 20.3651 13.1147 19.8673C13.0281 18.6012 13.277 17.3891 13.8722 16.1987C14.7271 14.478 16.6534 12.9196 18.504 12.4543C19.1317 12.3028 21.5449 12.292 21.7073 12.4435ZM5.52848 22.5728C7.43314 23.0598 8.8941 24.1745 9.9763 25.9601C10.6364 27.0639 10.8637 27.9297 10.8637 29.4772C10.8637 30.3538 10.8204 30.8408 10.7338 30.9273C10.5174 31.1438 8.69931 31.1762 7.77944 30.9814C5.44191 30.4945 3.2667 28.5573 2.46587 26.2631C2.20615 25.5055 2.06546 23.839 2.19533 22.9732C2.2819 22.4105 2.29272 22.3997 3.73204 22.378C4.39218 22.3672 4.98739 22.4321 5.52848 22.5728ZM21.7073 22.5079C21.7506 22.562 21.7939 23.2654 21.7939 24.0771C21.7939 25.354 21.7614 25.6571 21.5449 26.2631C21.1662 27.3128 20.6034 28.1677 19.6836 29.0768C18.2226 30.5269 16.4478 31.2087 14.4025 31.1005C13.8506 31.0788 13.3419 31.0031 13.2878 30.949C13.2337 30.8949 13.1579 30.4295 13.1147 29.9317C12.9199 27.0531 14.5864 24.2502 17.227 23.0057C17.6382 22.8217 18.2118 22.6053 18.5256 22.5187C19.1425 22.3672 21.5558 22.3564 21.7073 22.5079Z" fill="#DBEA8D"/>
</svg>
